# xmcd
#
# Track frame offsets: 
#        150
#        15322
#        30887
#        45212
#        58122
#        74357
#        91515
#        110000
#        125197
#        140787
#
# Disc length: 2102 seconds
#
# Revision: 1
# Processed by: cddbd v1.5PL3 Copyright (c) Steve Scherf et al.
# Submitted via: ExactAudioCopy v0.95a3
#
DISCID=7e08340a
DTITLE=Cleve Francis - You've Got Me Now
DYEAR=1994
DGENRE=Country
TTITLE0=Love Or The Lack Thereof
TTITLE1=We Fell In Love Anyway
TTITLE2=Not Even Monday
TTITLE3=It Ain't Gonna Worry My Mind
TTITLE4=You've Got Me Now
TTITLE5=A Love Like This
TTITLE6=Here You Are
TTITLE7=The Only Explanation
TTITLE8=If You'll Let This Fool Back In
TTITLE9=What I Wouldn't Give
EXTD=
EXTT0=
EXTT1=
EXTT2=
EXTT3=
EXTT4=
EXTT5=
EXTT6=
EXTT7=
EXTT8=
EXTT9=
PLAYORDER=
